<?xml version="1.0" encoding="UTF-8"?>
<svg id="Layer_1" xmlns="http://www.w3.org/2000/svg" version="1.1" viewBox="0 0 1800 1800">
  <!-- Generator: Adobe Illustrator 30.2.1, SVG Export Plug-In . SVG Version: 2.1.1 Build 1)  -->
  <defs>
    <style>
      .st0 {
        fill: #fff;
      }
    </style>
  </defs>
  <g>
    <g>
      <path class="st0" d="M1092.55,1114.17c168.43-84.34,259.89-258.38,242.55-442.73-3.12-33.21,30.14-57.78,55.25-57.65,31.55.17,59.47,26.6,54.69,59.76l-26.37,183.13c-2.09,14.54,9.54,26.39,20.53,28.8,14.41,3.16,30.14-5.08,32.53-21.12l27.42-183.73c6.81-45.63-19.47-88.3-56.13-108.12-42.26-22.85-90.71-15.8-127.62,16.84-37.45-114.09-116.87-204.99-222.49-257.62-25.62-12.77-27.65-49.11-3.34-64.21.17-.1.34-.21.5-.31,19.07-11.55,42.04-10.88,60.97,3.08l363.68,268.05c76.97,56.73,110.41,150.36,87.08,243.14l-74.28,295.47,54.31,105.51-319.16,227.82c-49.38-50.21-91.42-106.5-125.32-168.3-21.07-39.71-35.72-78.37-44.8-127.82Z"/>
      <path class="st0" d="M1351.1,1534.93c-14.42,10.29-31.45,7.01-40.07-5.86l-24.39-36.38c-8.37-12.49-5.05-28.9,7.74-38.03l331.08-236.33c13.15-9.39,30.28-3.23,38.11,8.61l22.9,34.65c9.15,13.84,4.64,30.69-8.69,40.21l-326.68,233.13Z"/>
    </g>
    <g>
      <path class="st0" d="M464.85,692.22c-12.83,176.98,82.78,341.13,241,420.88-10.8,104.84-94.42,219.95-167.92,297.43l-319.75-228.13,54.25-105.34-74.74-298.35c-22.27-88.89,9.98-182.64,83.98-237.25l369.22-272.51c18.19-13.43,41.33-12.31,58.98-1.75.17.1.34.2.51.31,24.48,15.01,22.4,51.51-3.3,64.32-104.87,52.26-185.03,142.96-222.47,257.59-36.83-33.07-85.85-39.36-127.56-16.96-40.16,21.56-62.99,66.31-55.73,114.34l26.45,174.88c2.43,16.07,14.56,26.09,30.29,24.31,12.09-1.37,25.65-13.57,23.34-29.33l-26.35-180.3c-4.35-29.74,15.45-55.78,42.92-61.39,28.99-5.91,57.26,11.99,64.46,42.08,2.57,10.73,3.45,20.89,2.42,35.18Z"/>
      <path class="st0" d="M489.66,1528.28c-9.04,13.59-26.49,16.79-39.58,7.45l-331.44-236.67c-11.78-8.41-12.16-26.79-5.32-37.12l23.06-34.83c8.9-13.44,26.1-17.52,40.03-7.57l329.28,235.07c12.83,9.16,15.92,25.64,7.66,38.07l-23.68,35.61Z"/>
    </g>
  </g>
  <path class="st0" d="M883.88,1189.17c-5.53,9.85-13.61,13.3-23.01,11.15-7.06-1.61-16.12-9.55-15.09-19.54l34.37-332.45h-253.35c-7.5,0-14.1-3.75-17.14-8.41-3.67-5.64-5.23-13.66-1.46-20.27l313.84-549.88c5.39-9.44,15.14-12.65,24.06-9.55,9.37,3.25,14.47,11.85,13.02,22.91l-43.02,328.6,257.48.02c7.33,0,13.81,3.76,16.89,8.39,3.97,5.96,5.07,13.9,1.12,20.94l-307.71,548.1Z"/>
</svg>