<svg width="1280" height="832" viewBox="0 0 1280 832" fill="none" xmlns="http://www.w3.org/2000/svg">
<g clip-path="url(#clip0_152_30)">
<rect x="153" y="772" width="960" height="16" fill="#D9D9D9"/>
<rect x="243" y="486" width="842" height="15" fill="#D9D9D9"/>
<rect x="566" y="284" width="10" height="501" fill="#D9D9D9"/>
<rect x="1054" y="351" width="22" height="421" fill="#D9D9D9"/>
<rect x="298" y="497" width="10" height="275" fill="#D9D9D9"/>
<rect x="481.114" y="260.846" width="611.811" height="15.7242" transform="rotate(8 481.114 260.846)" fill="#D9D9D9"/>
<rect x="383" y="410" width="183" height="5" fill="#D9D9D9"/>
<rect x="383" y="448" width="183" height="5" fill="#D9D9D9"/>
<rect x="383" y="429" width="183" height="5" fill="#D9D9D9"/>
<rect x="373" y="401" width="10" height="85" fill="#D9D9D9"/>
<rect x="383" y="467" width="183" height="5" fill="#D9D9D9"/>
<rect x="904" y="500" width="9" height="271" fill="#D9D9D9"/>
<rect x="586.5" y="408.5" width="134.707" height="27" stroke="#D9D9D9"/>
<rect x="586.5" y="448.5" width="134.707" height="27" stroke="#D9D9D9"/>
<rect x="586" y="476" width="4.98922" height="8" fill="#D9D9D9"/>
<rect x="716.718" y="476" width="4.98922" height="8" fill="#D9D9D9"/>
<rect x="591" y="437" width="126" height="17" rx="2" fill="#D9D9D9"/>
<path d="M697.962 427.011C698.969 427.113 699.754 427.964 699.754 429V438C699.754 439.105 698.861 440 697.759 440H674.808C673.706 440 672.812 439.105 672.812 438V429L672.823 428.796C672.925 427.787 673.775 427 674.808 427H697.759L697.962 427.011Z" fill="#928D8D"/>
<rect x="586" y="436" width="3.99138" height="12" fill="#D9D9D9"/>
<rect x="717.716" y="436" width="3.99138" height="12" fill="#D9D9D9"/>
<path d="M634.1 427.011C635.107 427.113 635.892 427.964 635.892 429V438C635.892 439.105 634.999 440 633.897 440H610.946C609.844 440 608.95 439.105 608.95 438V429L608.961 428.796C609.063 427.787 609.913 427 610.946 427H633.897L634.1 427.011Z" fill="#928D8D"/>
<rect x="608.95" y="431" width="26.9418" height="1" fill="#D9D9D9"/>
<rect x="608.95" y="429" width="26.9418" height="1" fill="#D9D9D9"/>
<rect x="672.812" y="431" width="26.9418" height="1" fill="#D9D9D9"/>
<rect x="672.812" y="429" width="26.9418" height="1" fill="#D9D9D9"/>
<rect x="999" y="359" width="2" height="127" fill="#D9D9D9"/>
<path d="M1042 359H1044V486H1042V359Z" fill="#D9D9D9"/>
<rect x="1003.25" y="376.5" width="36.6061" height="19" stroke="#D9D9D9"/>
<rect x="1003.25" y="359.5" width="36.6061" height="14" stroke="#D9D9D9"/>
<rect x="1003.5" y="464.5" width="36" height="16" stroke="#D9D9D9"/>
<rect x="1003.25" y="398.5" width="36.6061" height="19" stroke="#D9D9D9"/>
<rect x="1003.25" y="420.5" width="36.6061" height="19" stroke="#D9D9D9"/>
<rect x="1003.25" y="442.5" width="36.6061" height="19" stroke="#D9D9D9"/>
<rect x="663.832" y="369" width="178.614" height="2" fill="#D9D9D9"/>
<rect x="663.832" y="390" width="178.614" height="2" fill="#D9D9D9"/>
<path d="M663.832 371H665.827V390H663.832V371Z" fill="#D9D9D9"/>
<rect x="796.545" y="371" width="1.99569" height="19" fill="#D9D9D9"/>
<rect x="708.735" y="371" width="1.99569" height="19" fill="#D9D9D9"/>
<rect x="752.64" y="371" width="1.99569" height="19" fill="#D9D9D9"/>
<rect x="840.45" y="371" width="1.99569" height="19" fill="#D9D9D9"/>
<rect x="652.855" y="301" width="0.997845" height="39.2" fill="#D9D9D9"/>
<path d="M640.881 348H665.827C665.827 348.552 665.38 349 664.827 349H641.881C641.329 349 640.881 348.552 640.881 348Z" fill="#D9D9D9"/>
<path d="M640.881 348C640.881 346.343 642.224 345 643.881 345H662.827C664.484 345 665.827 346.343 665.827 348H640.881Z" fill="#D9D9D9"/>
<rect x="651.858" y="340.2" width="2.99353" height="5.44444" fill="#D9D9D9"/>
<rect x="867" y="433" width="99" height="3" fill="#D9D9D9"/>
<rect x="877.871" y="438.5" width="77.8297" height="9" stroke="#D9D9D9"/>
<rect x="877.871" y="451.5" width="77.8297" height="9" stroke="#D9D9D9"/>
<path d="M955.701 464.5V477.5H877.871V464.5H955.701Z" stroke="#D9D9D9"/>
<rect x="872" y="436" width="2.99353" height="48" fill="#D9D9D9"/>
<rect x="957.815" y="436" width="2.99353" height="48" fill="#D9D9D9"/>
<rect x="901.819" y="374.5" width="28.9353" height="41" rx="0.5" stroke="#D9D9D9"/>
<circle cx="916" cy="412" r="1" fill="#D9D9D9"/>
<rect x="727.694" y="450" width="35.9224" height="3" fill="#D9D9D9"/>
<rect x="729.689" y="454" width="31.931" height="11" fill="#D9D9D9"/>
<rect x="729.689" y="466" width="31.931" height="11" fill="#D9D9D9"/>
<rect x="729.689" y="477" width="2.99353" height="7" fill="#D9D9D9"/>
<rect x="758.627" y="477" width="2.99353" height="7" fill="#D9D9D9"/>
<rect x="740.666" y="458" width="8.9806" height="2" fill="#D9D9D9"/>
<rect x="740.666" y="470" width="8.9806" height="2" fill="#D9D9D9"/>
<rect x="737.672" y="441" width="5.32739" height="9" rx="1" fill="#D9D9D9"/>
<path d="M738.738 442.286H741.934V448.714H738.738V442.286Z" fill="#322A23"/>
<rect x="958" y="697" width="4" height="75" fill="#D9D9D9"/>
<rect x="1013" y="697" width="4" height="75" fill="#D9D9D9"/>
<path d="M987.5 726C996.669 726 1004 732.994 1004 741.5C1004 750.006 996.669 757 987.5 757C978.331 757 971 750.006 971 741.5C971 732.994 978.331 726 987.5 726Z" stroke="#D9D9D9" stroke-width="2"/>
<rect x="965" y="697" width="45" height="2" fill="#D9D9D9"/>
<rect x="962" y="711" width="52" height="2" fill="#D9D9D9"/>
<rect x="965" y="703" width="25" height="5" fill="#D9D9D9"/>
<circle cx="995.5" cy="705.5" r="2.5" fill="#D9D9D9"/>
<circle cx="1005.5" cy="705.5" r="2.5" fill="#D9D9D9"/>
<rect x="742" y="610" width="130" height="2" fill="#D9D9D9"/>
<rect x="742" y="631" width="130" height="2" fill="#D9D9D9"/>
<path d="M742 612H743.453V631H742V612Z" fill="#D9D9D9"/>
<rect x="838.592" y="612" width="1.45251" height="19" fill="#D9D9D9"/>
<rect x="774.682" y="612" width="1.45251" height="19" fill="#D9D9D9"/>
<rect x="806.637" y="612" width="1.45251" height="19" fill="#D9D9D9"/>
<rect x="870.547" y="612" width="1.45251" height="19" fill="#D9D9D9"/>
<rect x="741" y="689" width="133" height="4" fill="#D9D9D9"/>
<rect x="741" y="694" width="3" height="90" fill="#D9D9D9"/>
<rect x="871" y="694" width="3" height="90" fill="#D9D9D9"/>
<path d="M867.5 696.5V706.5H747.5V696.5H867.5Z" stroke="#D9D9D9"/>
<path d="M867.5 709.5V719.5H747.5V709.5H867.5Z" stroke="#D9D9D9"/>
<rect x="747" y="724" width="32" height="44" fill="#D9D9D9"/>
<rect x="784" y="724" width="32" height="44" fill="#D9D9D9"/>
<path d="M778 686H795V687C795 687.552 794.552 688 794 688H779C778.448 688 778 687.552 778 687V686Z" fill="#D9D9D9"/>
<path d="M798 686H815V687C815 687.552 814.552 688 814 688H799C798.448 688 798 687.552 798 687V686Z" fill="#D9D9D9"/>
<path d="M842 671H848C849.105 671 850 671.895 850 673H843C842.448 673 842 672.552 842 672V671Z" fill="#D9D9D9"/>
<path d="M848 673H850V689H848V673Z" fill="#D9D9D9"/>
<path d="M845 685.5C845 684.672 845.672 684 846.5 684H848V687H846.5C845.672 687 845 686.328 845 685.5Z" fill="#D9D9D9"/>
<path d="M850 684H851.5C852.328 684 853 684.672 853 685.5C853 686.328 852.328 687 851.5 687H850V684Z" fill="#D9D9D9"/>
<path d="M751 675H758C758.552 675 759 675.448 759 676V676.167H752C751.448 676.167 751 675.719 751 675.167V675Z" fill="#D9D9D9"/>
<rect x="753" y="676.167" width="6" height="11.6667" fill="#D9D9D9"/>
<path d="M752 688.833C752 688.281 752.448 687.833 753 687.833H759C759.552 687.833 760 688.281 760 688.833V689H752V688.833Z" fill="#D9D9D9"/>
<path d="M759 677.333H760C760.552 677.333 761 677.781 761 678.333V678.5H759V677.333Z" fill="#D9D9D9"/>
<path d="M760 678.5H761V684.333C760.448 684.333 760 683.886 760 683.333V678.5Z" fill="#D9D9D9"/>
<path d="M775 636H814C814 638.209 812.209 640 810 640H779C776.791 640 775 638.209 775 636Z" fill="#D9D9D9"/>
<rect x="785" y="633" width="20" height="3" fill="#D9D9D9"/>
<rect x="842" y="614" width="26" height="15" rx="1" fill="#645F5F"/>
<rect x="844" y="620" width="1" height="4" fill="#D9D9D9"/>
<path d="M823 731.098H861C861.552 731.098 862 731.545 862 732.098V766C862 766.552 861.552 767 861 767H823C822.448 767 822 766.552 822 766V732.098C822 731.545 822.448 731.098 823 731.098Z" stroke="#D9D9D9" stroke-width="2"/>
<rect x="821" y="724" width="42" height="3" rx="1" fill="#D9D9D9"/>
<rect x="826" y="735" width="32" height="28" rx="1" fill="#645F5F"/>
<rect x="645" y="501" width="2" height="83" fill="#D9D9D9"/>
<rect x="642.482" y="583.468" width="7.49388" height="5.42553" fill="#D9D9D9"/>
<rect x="631.99" y="588.861" width="29.9755" height="3.0297" fill="#D9D9D9"/>
<rect x="636.487" y="599.97" width="19.4841" height="3.0297" fill="#D9D9D9"/>
<rect x="631.99" y="596.941" width="29.9755" height="3.0297" fill="#D9D9D9"/>
<rect x="620" y="591.891" width="52.4572" height="5.0495" fill="#D9D9D9"/>
<rect x="616" y="690" width="59" height="2" fill="#D9D9D9"/>
<rect x="623" y="692" width="2" height="77" fill="#D9D9D9"/>
<rect x="666" y="692" width="2" height="77" fill="#D9D9D9"/>
<path d="M593 715C593 714.448 593.448 714 594 714H611C611.552 714 612 714.448 612 715V717H593V715Z" fill="#D9D9D9"/>
<rect x="596" y="717" width="1" height="52" fill="#D9D9D9"/>
<rect x="608" y="717" width="1" height="52" fill="#D9D9D9"/>
<path d="M595 708H596C596.552 708 597 708.448 597 709V714H595V708Z" fill="#D9D9D9"/>
<rect x="597" y="764" width="11" height="1" fill="#D9D9D9"/>
<path d="M698 715C698 714.448 697.552 714 697 714H680C679.448 714 679 714.448 679 715V717H698V715Z" fill="#D9D9D9"/>
<rect width="1" height="52" transform="matrix(-1 0 0 1 695 717)" fill="#D9D9D9"/>
<rect width="1" height="52" transform="matrix(-1 0 0 1 683 717)" fill="#D9D9D9"/>
<path d="M696 708H695C694.448 708 694 708.448 694 709V714H696V708Z" fill="#D9D9D9"/>
<rect width="11" height="1" transform="matrix(-1 0 0 1 694 764)" fill="#D9D9D9"/>
<rect x="277" y="516" width="15" height="26" fill="#D9D9D9"/>
<rect x="292" y="525" width="6" height="6" fill="#D9D9D9"/>
<rect x="545" y="298" width="15" height="26" fill="#D9D9D9"/>
<rect x="560" y="307" width="6" height="6" fill="#D9D9D9"/>
<rect width="15" height="26" transform="matrix(-1 0 0 1 1097 525)" fill="#D9D9D9"/>
<rect width="6" height="6" transform="matrix(-1 0 0 1 1082 534)" fill="#D9D9D9"/>
<rect x="500.5" y="612.5" width="36" height="53" stroke="#D9D9D9"/>
<rect x="348" y="708" width="49" height="27" fill="#D9D9D9"/>
<rect x="346" y="707" width="1" height="29" fill="#D9D9D9"/>
<rect x="398" y="707" width="1" height="29" fill="#D9D9D9"/>
<rect x="346" y="706" width="53" height="1" fill="#D9D9D9"/>
<rect x="346" y="736" width="53" height="1" fill="#D9D9D9"/>
<rect x="327" y="743" width="2" height="19" fill="#D9D9D9"/>
<rect x="417" y="743" width="2" height="19" fill="#D9D9D9"/>
<rect x="324" y="741" width="98" height="2" fill="#D9D9D9"/>
<rect x="327" y="762" width="92" height="2" fill="#D9D9D9"/>
<rect x="327" y="764" width="3" height="5" fill="#D9D9D9"/>
<rect x="416" y="764" width="3" height="5" fill="#D9D9D9"/>
<rect x="330" y="744" width="22" height="17" fill="#D9D9D9"/>
<rect x="373" y="744" width="1" height="17" fill="#D9D9D9"/>
<rect x="395" y="744" width="20" height="17" fill="#D9D9D9"/>
<rect x="430" y="540" width="10" height="33" fill="#D9D9D9"/>
<rect x="445" y="557" width="10" height="33" fill="#D9D9D9"/>
<rect x="417" y="568" width="10" height="38" fill="#D9D9D9"/>
<rect x="421" y="501" width="1" height="67" fill="#D9D9D9"/>
<rect x="434" y="501" width="1" height="39" fill="#D9D9D9"/>
<rect x="450" y="501" width="1" height="56" fill="#D9D9D9"/>
<rect x="455" y="736" width="53" height="30" fill="#D9D9D9"/>
<rect x="497" y="717" width="7" height="19" fill="#D9D9D9"/>
<rect x="458" y="766" width="1" height="4" fill="#D9D9D9"/>
<rect x="504" y="766" width="1" height="4" fill="#D9D9D9"/>
<rect x="531" y="722" width="32" height="3" fill="#D9D9D9"/>
<rect x="546" y="725" width="2" height="44" fill="#D9D9D9"/>
<rect x="539" y="769" width="16" height="2" fill="#D9D9D9"/>
</g>
<defs>
<clipPath id="clip0_152_30">
<rect width="1280" height="832" fill="white"/>
</clipPath>
</defs>
</svg>
