<?xml version="1.0" encoding="UTF-8"?>
<svg id="Layer_1" xmlns="http://www.w3.org/2000/svg" version="1.1" viewBox="0 0 1920 615.69">
  <!-- Generator: Adobe Illustrator 30.2.1, SVG Export Plug-In . SVG Version: 2.1.1 Build 1)  -->
  <defs>
    <style>
      .st0 {
        fill: #fff;
      }
    </style>
  </defs>
  <path class="st0" d="M102.58,438.12c-21.57,0-37.51-5.16-47.83-15.47s-15.47-26.26-15.47-47.83v-116.43c0-3.96.99-6.92,2.97-8.9,1.98-1.98,4.94-2.97,8.9-2.97s6.92.99,8.9,2.97,2.97,4.95,2.97,8.9v116.43c0,10.08,1.2,17.99,3.6,23.74,2.4,5.75,6.48,9.82,12.22,12.22,5.74,2.4,13.66,3.6,23.74,3.6h33.91c10.08,0,17.99-1.2,23.74-3.6,5.74-2.4,9.82-6.48,12.22-12.22,2.4-5.74,3.6-13.66,3.6-23.74v-116.43c0-3.96.99-6.92,2.97-8.9s4.95-2.97,8.9-2.97,6.92.99,8.9,2.97,2.97,4.95,2.97,8.9v116.43c0,21.57-5.14,37.51-15.4,47.83-10.27,10.31-26.23,15.47-47.9,15.47h-33.91Z"/>
  <path class="st0" d="M299.26,459.31c-18.46,0-31.98-5.25-40.55-15.75-8.57-10.5-12.86-26.82-12.86-48.96v-91.84c0-23.17,4.29-40.22,12.86-51.15,8.57-10.93,22.09-16.39,40.55-16.39,2.73,0,5.06.97,6.99,2.9,1.93,1.93,2.9,4.26,2.9,6.99s-.97,4.95-2.9,6.92c-1.93,1.98-4.26,2.97-6.99,2.97-8.38,0-15.03,1.46-19.92,4.38-4.9,2.92-8.41,7.87-10.53,14.84-2.12,6.97-3.18,16.48-3.18,28.54v91.84c0,17.05,2.47,28.8,7.42,35.25,4.95,6.45,13.68,9.68,26.21,9.68,2.73,0,5.06.96,6.99,2.9s2.9,4.26,2.9,6.99-.97,4.95-2.9,6.92c-1.93,1.98-4.26,2.97-6.99,2.97Z"/>
  <path class="st0" d="M464.57,438.68c-3.11,1.98-6.08,2.59-8.9,1.84-2.83-.76-5.23-2.68-7.21-5.79l-43.8-72.91h-39.56v64.43c0,7.91-3.96,11.87-11.87,11.87s-11.87-3.96-11.87-11.87v-167.86c0-7.91,3.96-11.87,11.87-11.87h66.13c17.24,0,30.45,4.59,39.63,13.78,9.18,9.18,13.78,22.4,13.78,39.63v8.48c0,14.98-3.49,26.92-10.46,35.82-6.97,8.9-17.05,14.44-30.24,16.6l37.02,61.75c3.58,6.59,2.07,11.96-4.52,16.11ZM365.1,338.08h54.26c10.74,0,18.37-2.26,22.89-6.78s6.78-12.15,6.78-22.89v-8.48c0-10.64-2.26-18.25-6.78-22.82-4.52-4.57-12.15-6.85-22.89-6.85h-54.26v67.82Z"/>
  <path class="st0" d="M501.31,459.31c-2.64,0-4.95-.99-6.92-2.97-1.98-1.98-2.97-4.29-2.97-6.92s.99-5.06,2.97-6.99c1.98-1.93,4.29-2.9,6.92-2.9,12.62,0,21.38-3.23,26.28-9.68,4.9-6.45,7.35-18.2,7.35-35.25v-91.84c0-12.06-1.06-21.57-3.18-28.54-2.12-6.97-5.63-11.92-10.53-14.84-4.9-2.92-11.54-4.38-19.92-4.38-2.64,0-4.95-.99-6.92-2.97-1.98-1.98-2.97-4.29-2.97-6.92s.99-5.06,2.97-6.99c1.98-1.93,4.29-2.9,6.92-2.9,18.56,0,32.1,5.46,40.62,16.39,8.52,10.93,12.79,27.98,12.79,51.15v91.84c0,22.14-4.26,38.46-12.79,48.96-8.53,10.5-22.07,15.75-40.62,15.75Z"/>
  <path class="st0" d="M614.05,438.12c-7.91,0-11.87-3.96-11.87-11.87v-167.86c0-7.91,3.96-11.87,11.87-11.87h101.45c7.91,0,11.87,3.96,11.87,11.87s-3.96,11.87-11.87,11.87h-89.58v59.34h56.23c7.91,0,11.87,3.96,11.87,11.87s-3.96,11.87-11.87,11.87h-56.23v61.04h89.58c7.91,0,11.87,3.96,11.87,11.87s-3.96,11.87-11.87,11.87h-101.45Z"/>
  <path class="st0" d="M784.45,438.12c-7.91,0-11.87-3.96-11.87-11.87v-167.86c0-7.91,3.96-11.87,11.87-11.87,4.05,0,8.01,2.36,11.87,7.06l113.6,146.38h-5.93v-141.57c0-7.91,3.96-11.87,11.87-11.87s11.87,3.96,11.87,11.87v167.86c0,7.91-3.96,11.87-11.87,11.87-4.24,0-8.2-2.35-11.87-7.06l-113.6-146.38h5.93v141.58c0,7.91-3.96,11.87-11.87,11.87Z"/>
  <path class="st0" d="M998.37,438.12c-7.91,0-11.87-3.96-11.87-11.87v-167.86c0-7.91,3.96-11.87,11.87-11.87h101.45c7.91,0,11.87,3.96,11.87,11.87s-3.96,11.87-11.87,11.87h-89.58v59.34h56.24c7.91,0,11.87,3.96,11.87,11.87s-3.96,11.87-11.87,11.87h-56.24v61.04h89.58c7.91,0,11.87,3.96,11.87,11.87s-3.96,11.87-11.87,11.87h-101.45Z"/>
  <path class="st0" d="M1280.1,438.68c-3.11,1.98-6.07,2.59-8.9,1.84-2.83-.76-5.23-2.68-7.21-5.79l-43.8-72.91h-39.56v64.43c0,7.91-3.96,11.87-11.87,11.87s-11.87-3.96-11.87-11.87v-167.86c0-7.91,3.96-11.87,11.87-11.87h66.12c17.24,0,30.45,4.59,39.63,13.78,9.18,9.18,13.78,22.4,13.78,39.63v8.48c0,14.98-3.49,26.92-10.46,35.82-6.97,8.9-17.05,14.44-30.24,16.6l37.02,61.75c3.58,6.59,2.07,11.96-4.52,16.11ZM1180.63,338.08h54.26c10.74,0,18.37-2.26,22.89-6.78s6.78-12.15,6.78-22.89v-8.48c0-10.64-2.26-18.25-6.78-22.82-4.52-4.57-12.15-6.85-22.89-6.85h-54.26v67.82Z"/>
  <path class="st0" d="M1390.03,438.12c-21.57,0-37.51-5.16-47.83-15.47s-15.47-26.26-15.47-47.83v-65c0-21.76,5.13-37.8,15.4-48.11,10.27-10.31,26.14-15.38,47.62-15.19h34.19c17.71,0,31.23,3.65,40.55,10.95,9.32,7.3,14.74,18.82,16.25,34.55.56,3.96-.19,6.97-2.26,9.04s-5.09,3.11-9.04,3.11c-7.16,0-11.3-3.96-12.43-11.87-.94-8.66-3.93-14.5-8.97-17.52-5.04-3.01-13.07-4.52-24.09-4.52h-34.19c-9.99-.09-17.83,1.04-23.53,3.39-5.7,2.36-9.75,6.43-12.15,12.22-2.4,5.79-3.6,13.78-3.6,23.95v65c0,10.08,1.2,17.99,3.6,23.74,2.4,5.75,6.48,9.82,12.22,12.22,5.74,2.4,13.66,3.6,23.74,3.6h33.91c8.76,0,15.61-.96,20.56-2.9,4.95-1.93,8.41-5.34,10.39-10.24,1.98-4.9,2.97-11.82,2.97-20.77v-13.28l-22.04-.28c-7.91,0-11.87-3.96-11.87-11.87s3.96-11.87,11.87-11.87l33.91.28c7.91,0,11.87,3.96,11.87,11.87v25.15c0,20.06-4.66,34.69-13.99,43.87-9.33,9.18-23.88,13.78-43.66,13.78h-33.91Z"/>
  <path class="st0" d="M1581.34,438.12c-7.91,0-11.87-3.96-11.87-11.87v-57.65l-64.71-103.14c-3.96-6.78-2.73-12.34,3.67-16.67,6.78-4.14,12.24-2.92,16.39,3.67l56.52,90.71,59.34-90.71c1.98-3.11,4.38-4.97,7.21-5.58,2.83-.61,5.79.21,8.9,2.47,6.88,4.24,8.1,9.61,3.67,16.11l-67.26,103.14v57.65c0,7.91-3.96,11.87-11.87,11.87Z"/>
  <path class="st0" d="M1720.22,344.02c-2.31,0-4.04-.58-5.19-1.73-1.15-1.15-1.73-2.88-1.73-5.19v-90.78h-31.96c-2.31,0-4.04-.58-5.19-1.73-1.15-1.15-1.73-2.88-1.73-5.19s.58-4.04,1.73-5.19c1.15-1.15,2.88-1.73,5.19-1.73h77.76c2.31,0,4.04.58,5.19,1.73s1.73,2.88,1.73,5.19-.58,4.04-1.73,5.19-2.88,1.73-5.19,1.73h-31.96v90.78c0,2.2-.59,3.9-1.77,5.11-1.18,1.21-2.9,1.81-5.15,1.81Z"/>
  <path class="st0" d="M1794.85,344.02c-4.61,0-6.92-2.31-6.92-6.92v-97.86c0-4.61,2.31-6.92,6.92-6.92,3.02,0,5.55,1.48,7.58,4.45l38.88,58.49-2.97.49,39.21-58.98c1.87-2.97,4.67-4.45,8.4-4.45s5.6,2.31,5.6,6.92v97.86c0,4.61-2.31,6.92-6.92,6.92s-6.92-2.31-6.92-6.92v-84.02l4.28,1.48-34.6,50.91c-2.03,2.97-4.83,4.45-8.4,4.45-2.47,0-4.72-1.48-6.75-4.45l-34.6-50.91,4.12,1.15v81.39c0,4.61-2.31,6.92-6.92,6.92Z"/>
</svg>