<svg width="458" height="185" viewBox="0 0 458 185" fill="none" xmlns="http://www.w3.org/2000/svg">
<rect x="0.5" y="107.5" width="134.707" height="27" stroke="#D9D9D9"/>
<rect x="0.5" y="147.5" width="134.707" height="27" stroke="#D9D9D9"/>
<rect y="175" width="4.98922" height="8" fill="#D9D9D9"/>
<rect x="130.718" y="175" width="4.98922" height="8" fill="#D9D9D9"/>
<rect x="4.9892" y="136" width="125.728" height="13" fill="#D9D9D9"/>
<path d="M111.962 126.011C112.969 126.113 113.754 126.964 113.754 128V137C113.754 138.105 112.861 139 111.759 139H88.8082C87.706 139 86.8125 138.105 86.8125 137V128L86.8232 127.796C86.9253 126.787 87.7748 126 88.8082 126H111.759L111.962 126.011Z" fill="#928D8D"/>
<rect y="135" width="3.99138" height="12" fill="#D9D9D9"/>
<rect x="131.716" y="135" width="3.99138" height="12" fill="#D9D9D9"/>
<path d="M48.1002 126.011C49.1067 126.113 49.8923 126.964 49.8923 128V137C49.8923 138.105 48.9987 139 47.8966 139H24.9461C23.8439 139 22.9504 138.105 22.9504 137V128L22.9612 127.796C23.0632 126.787 23.9127 126 24.9461 126H47.8966L48.1002 126.011Z" fill="#928D8D"/>
<rect x="22.9504" y="130" width="26.9418" height="1" fill="#D9D9D9"/>
<rect x="22.9504" y="128" width="26.9418" height="1" fill="#D9D9D9"/>
<rect x="86.8125" y="130" width="26.9418" height="1" fill="#D9D9D9"/>
<rect x="86.8125" y="128" width="26.9418" height="1" fill="#D9D9D9"/>
<rect x="413" y="58" width="2" height="127" fill="#D9D9D9"/>
<path d="M456 58H458V185H456V58Z" fill="#D9D9D9"/>
<rect x="417.253" y="75.5" width="36.6061" height="19" stroke="#D9D9D9"/>
<rect x="417.253" y="58.5" width="36.6061" height="14" stroke="#D9D9D9"/>
<rect x="417.253" y="163.5" width="36.6061" height="19" stroke="#D9D9D9"/>
<rect x="417.253" y="97.5" width="36.6061" height="19" stroke="#D9D9D9"/>
<rect x="417.253" y="119.5" width="36.6061" height="19" stroke="#D9D9D9"/>
<rect x="417.253" y="141.5" width="36.6061" height="19" stroke="#D9D9D9"/>
<rect x="77.8319" y="68" width="178.614" height="2" fill="#D9D9D9"/>
<rect x="77.8319" y="89" width="178.614" height="2" fill="#D9D9D9"/>
<path d="M77.8319 70H79.8276V89H77.8319V70Z" fill="#D9D9D9"/>
<rect x="210.545" y="70" width="1.99569" height="19" fill="#D9D9D9"/>
<rect x="122.735" y="70" width="1.99569" height="19" fill="#D9D9D9"/>
<rect x="166.64" y="70" width="1.99569" height="19" fill="#D9D9D9"/>
<rect x="254.45" y="70" width="1.99569" height="19" fill="#D9D9D9"/>
<rect x="66.8556" width="0.997845" height="39.2" fill="#D9D9D9"/>
<path d="M54.8815 47H79.8276C79.8276 47.5523 79.3799 48 78.8276 48H55.8815C55.3292 48 54.8815 47.5523 54.8815 47Z" fill="#D9D9D9"/>
<path d="M54.8815 47C54.8815 45.3431 56.2246 44 57.8815 44H76.8276C78.4844 44 79.8276 45.3431 79.8276 47H54.8815Z" fill="#D9D9D9"/>
<rect x="65.8578" y="39.2" width="2.99353" height="5.44444" fill="#D9D9D9"/>
<rect x="281" y="132" width="99" height="3" fill="#D9D9D9"/>
<rect x="291.871" y="137.5" width="77.8297" height="9" stroke="#D9D9D9"/>
<rect x="291.871" y="150.5" width="77.8297" height="9" stroke="#D9D9D9"/>
<path d="M369.701 163.5V176.5H291.871V163.5H369.701Z" stroke="#D9D9D9"/>
<rect x="286" y="135" width="2.99353" height="48" fill="#D9D9D9"/>
<rect x="371.815" y="135" width="2.99353" height="48" fill="#D9D9D9"/>
<rect x="315.819" y="73.5" width="28.9353" height="41" stroke="#D9D9D9"/>
<rect x="141.694" y="149" width="35.9224" height="3" fill="#D9D9D9"/>
<rect x="143.69" y="153" width="31.931" height="11" fill="#D9D9D9"/>
<rect x="143.69" y="165" width="31.931" height="11" fill="#D9D9D9"/>
<rect x="143.69" y="176" width="2.99353" height="7" fill="#D9D9D9"/>
<rect x="172.627" y="176" width="2.99353" height="7" fill="#D9D9D9"/>
<rect x="154.666" y="157" width="8.9806" height="2" fill="#D9D9D9"/>
<rect x="154.666" y="169" width="8.9806" height="2" fill="#D9D9D9"/>
<rect x="151.672" y="142" width="4.98922" height="7" rx="1" fill="#D9D9D9"/>
<path d="M152.67 143H155.664V148H152.67V143Z" fill="#322A23"/>
</svg>
