<svg width="239" height="270" viewBox="0 0 239 270" fill="none" xmlns="http://www.w3.org/2000/svg">
<rect x="176.5" y="111.5" width="36" height="53" stroke="#D9D9D9"/>
<rect x="24" y="207" width="49" height="27" fill="#D9D9D9"/>
<rect x="22" y="206" width="1" height="29" fill="#D9D9D9"/>
<rect x="74" y="206" width="1" height="29" fill="#D9D9D9"/>
<rect x="22" y="205" width="53" height="1" fill="#D9D9D9"/>
<rect x="22" y="235" width="53" height="1" fill="#D9D9D9"/>
<rect x="3" y="242" width="2" height="19" fill="#D9D9D9"/>
<rect x="93" y="242" width="2" height="19" fill="#D9D9D9"/>
<rect y="240" width="98" height="2" fill="#D9D9D9"/>
<rect x="3" y="261" width="92" height="2" fill="#D9D9D9"/>
<rect x="3" y="263" width="3" height="5" fill="#D9D9D9"/>
<rect x="92" y="263" width="3" height="5" fill="#D9D9D9"/>
<rect x="6" y="243" width="22" height="17" fill="#D9D9D9"/>
<rect x="49" y="243" width="1" height="17" fill="#D9D9D9"/>
<rect x="71" y="243" width="20" height="17" fill="#D9D9D9"/>
<rect x="106" y="39" width="10" height="33" fill="#D9D9D9"/>
<rect x="121" y="56" width="10" height="33" fill="#D9D9D9"/>
<rect x="93" y="67" width="10" height="38" fill="#D9D9D9"/>
<rect x="97" width="1" height="67" fill="#D9D9D9"/>
<rect x="110" width="1" height="39" fill="#D9D9D9"/>
<rect x="126" width="1" height="56" fill="#D9D9D9"/>
<rect x="131" y="235" width="53" height="30" fill="#D9D9D9"/>
<rect x="173" y="216" width="7" height="19" fill="#D9D9D9"/>
<rect x="134" y="265" width="1" height="4" fill="#D9D9D9"/>
<rect x="180" y="265" width="1" height="4" fill="#D9D9D9"/>
<rect x="207" y="221" width="32" height="3" fill="#D9D9D9"/>
<rect x="222" y="224" width="2" height="44" fill="#D9D9D9"/>
<rect x="215" y="268" width="16" height="2" fill="#D9D9D9"/>
</svg>
